# xmcd
#
# Track frame offsets:
#	150
#	11355
#	24050
#	36837
#	51132
#	65340
#	79600
#	94607
#	105877
#	119582
#
# Disc length: 1733 seconds
#
# Revision: 0
# Processed by: cddbd v1.5.2PL0 Copyright (c) Steve Scherf et al.
# Submitted via: EasyCDDAExtractor 10.5.1.1
#
DISCID=6706c30a
DTITLE=Ray Cook - Somebody Hurting
DYEAR=2001
DGENRE=Gospel
TTITLE0=We Will Bloom Again
TTITLE1=God Said It
TTITLE2=You Could Hear The Heavenly Music
TTITLE3=Somebody Hurting
TTITLE4=I Got Up Feeling Better
TTITLE5=The Way To Walk Without Falling
TTITLE6=My Mama's Prayer
TTITLE7=God's Love Will Never Fail
TTITLE8=God's Anointing Is Upon Us
TTITLE9=My God's Gonna Work It Out
EXTD=
EXTT0=
EXTT1=
EXTT2=
EXTT3=
EXTT4=
EXTT5=
EXTT6=
EXTT7=
EXTT8=
EXTT9=
PLAYORDER=
